<svg xmlns="http://www.w3.org/2000/svg" width="36" height="36" viewBox="0 0 24 24" fill="none" stroke="#4a3f35" stroke-width="1.25" stroke-linecap="round" stroke-linejoin="round" class="icon icon-tabler icons-tabler-outline icon-tabler-book">
    <path
            d="
    M3 6
    a9 9 0 0 1 9 0
    a9 9 0 0 1 9 0
    L21 19
    a9 9 0 0 0 -9 0
    a9 9 0 0 0 -9 0
    Z
  "
            fill="#faf7f0"
    />



    <path stroke="none" d="M0 0h24v24H0z" fill="none"/>
    <path d="M3 19a9 9 0 0 1 9 0a9 9 0 0 1 9 0" />
    <path d="M3 6a9 9 0 0 1 9 0a9 9 0 0 1 9 0" />
    <path d="M3 6l0 13" />
    <path d="M12 6l0 13" />
    <path d="M21 6l0 13" />
</svg>